<mxfile host="app.diagrams.net" modified="2023-10-13T23:51:35.976Z" agent="Mozilla/5.0 (Windows NT 10.0; Win64; x64) AppleWebKit/537.36 (KHTML, like Gecko) Chrome/117.0.0.0 Safari/537.36 Edg/117.0.2045.60" etag="kFcc9sKhYMdynJ5hY1GE" version="22.0.4" type="github">
  <diagram id="R2lEEEUBdFMjLlhIrx00" name="modelo_E-R">
    <mxGraphModel dx="880" dy="1576" grid="1" gridSize="10" guides="1" tooltips="1" connect="1" arrows="1" fold="1" page="1" pageScale="1" pageWidth="850" pageHeight="1100" math="0" shadow="0" extFonts="Permanent Marker^https://fonts.googleapis.com/css?family=Permanent+Marker">
      <root>
        <mxCell id="0" />
        <mxCell id="1" parent="0" />
        <mxCell id="c_MIl92OtCC0vAHZhnYI-29" style="edgeStyle=orthogonalEdgeStyle;rounded=0;orthogonalLoop=1;jettySize=auto;html=1;entryX=0;entryY=0.5;entryDx=0;entryDy=0;startArrow=ERmany;startFill=0;endArrow=ERone;endFill=0;" edge="1" parent="1" source="c_MIl92OtCC0vAHZhnYI-3" target="c_MIl92OtCC0vAHZhnYI-27">
          <mxGeometry relative="1" as="geometry" />
        </mxCell>
        <mxCell id="c_MIl92OtCC0vAHZhnYI-3" value="Usuarios" style="rounded=1;arcSize=10;whiteSpace=wrap;html=1;align=center;" vertex="1" parent="1">
          <mxGeometry x="200" y="200" width="100" height="40" as="geometry" />
        </mxCell>
        <mxCell id="c_MIl92OtCC0vAHZhnYI-16" style="edgeStyle=orthogonalEdgeStyle;rounded=0;orthogonalLoop=1;jettySize=auto;html=1;entryX=0;entryY=0.5;entryDx=0;entryDy=0;endArrow=none;endFill=0;" edge="1" parent="1" source="c_MIl92OtCC0vAHZhnYI-4" target="c_MIl92OtCC0vAHZhnYI-3">
          <mxGeometry relative="1" as="geometry" />
        </mxCell>
        <mxCell id="c_MIl92OtCC0vAHZhnYI-4" value="Id_Usuario" style="ellipse;whiteSpace=wrap;html=1;align=center;fontStyle=4;" vertex="1" parent="1">
          <mxGeometry x="40" y="-80" width="100" height="40" as="geometry" />
        </mxCell>
        <mxCell id="c_MIl92OtCC0vAHZhnYI-17" style="edgeStyle=orthogonalEdgeStyle;rounded=0;orthogonalLoop=1;jettySize=auto;html=1;entryX=0;entryY=0.5;entryDx=0;entryDy=0;endArrow=none;endFill=0;" edge="1" parent="1" source="c_MIl92OtCC0vAHZhnYI-5" target="c_MIl92OtCC0vAHZhnYI-3">
          <mxGeometry relative="1" as="geometry" />
        </mxCell>
        <mxCell id="c_MIl92OtCC0vAHZhnYI-5" value="Nombre" style="ellipse;whiteSpace=wrap;html=1;align=center;" vertex="1" parent="1">
          <mxGeometry x="40" y="-20" width="100" height="40" as="geometry" />
        </mxCell>
        <mxCell id="c_MIl92OtCC0vAHZhnYI-18" style="edgeStyle=orthogonalEdgeStyle;rounded=0;orthogonalLoop=1;jettySize=auto;html=1;entryX=0;entryY=0.5;entryDx=0;entryDy=0;endArrow=none;endFill=0;" edge="1" parent="1" source="c_MIl92OtCC0vAHZhnYI-6" target="c_MIl92OtCC0vAHZhnYI-3">
          <mxGeometry relative="1" as="geometry" />
        </mxCell>
        <mxCell id="c_MIl92OtCC0vAHZhnYI-6" value="ApellidoP" style="ellipse;whiteSpace=wrap;html=1;align=center;" vertex="1" parent="1">
          <mxGeometry x="40" y="40" width="100" height="40" as="geometry" />
        </mxCell>
        <mxCell id="c_MIl92OtCC0vAHZhnYI-19" style="edgeStyle=orthogonalEdgeStyle;rounded=0;orthogonalLoop=1;jettySize=auto;html=1;entryX=0;entryY=0.5;entryDx=0;entryDy=0;endArrow=none;endFill=0;" edge="1" parent="1" source="c_MIl92OtCC0vAHZhnYI-7" target="c_MIl92OtCC0vAHZhnYI-3">
          <mxGeometry relative="1" as="geometry">
            <mxPoint x="150" y="190" as="targetPoint" />
          </mxGeometry>
        </mxCell>
        <mxCell id="c_MIl92OtCC0vAHZhnYI-7" value="ApellidoM" style="ellipse;whiteSpace=wrap;html=1;align=center;" vertex="1" parent="1">
          <mxGeometry x="40" y="100" width="100" height="40" as="geometry" />
        </mxCell>
        <mxCell id="c_MIl92OtCC0vAHZhnYI-20" style="edgeStyle=orthogonalEdgeStyle;rounded=0;orthogonalLoop=1;jettySize=auto;html=1;entryX=0;entryY=0.5;entryDx=0;entryDy=0;endArrow=none;endFill=0;" edge="1" parent="1" source="c_MIl92OtCC0vAHZhnYI-8" target="c_MIl92OtCC0vAHZhnYI-3">
          <mxGeometry relative="1" as="geometry" />
        </mxCell>
        <mxCell id="c_MIl92OtCC0vAHZhnYI-8" value="Telefono" style="ellipse;whiteSpace=wrap;html=1;align=center;" vertex="1" parent="1">
          <mxGeometry x="40" y="160" width="100" height="40" as="geometry" />
        </mxCell>
        <mxCell id="c_MIl92OtCC0vAHZhnYI-21" style="edgeStyle=orthogonalEdgeStyle;rounded=0;orthogonalLoop=1;jettySize=auto;html=1;exitX=1;exitY=0.5;exitDx=0;exitDy=0;entryX=0;entryY=0.5;entryDx=0;entryDy=0;endArrow=none;endFill=0;" edge="1" parent="1" source="c_MIl92OtCC0vAHZhnYI-9" target="c_MIl92OtCC0vAHZhnYI-3">
          <mxGeometry relative="1" as="geometry" />
        </mxCell>
        <mxCell id="c_MIl92OtCC0vAHZhnYI-9" value="Email" style="ellipse;whiteSpace=wrap;html=1;align=center;" vertex="1" parent="1">
          <mxGeometry x="40" y="220" width="100" height="40" as="geometry" />
        </mxCell>
        <mxCell id="c_MIl92OtCC0vAHZhnYI-22" style="edgeStyle=orthogonalEdgeStyle;rounded=0;orthogonalLoop=1;jettySize=auto;html=1;entryX=0;entryY=0.5;entryDx=0;entryDy=0;endArrow=none;endFill=0;" edge="1" parent="1" source="c_MIl92OtCC0vAHZhnYI-10" target="c_MIl92OtCC0vAHZhnYI-3">
          <mxGeometry relative="1" as="geometry" />
        </mxCell>
        <mxCell id="c_MIl92OtCC0vAHZhnYI-10" value="UserName" style="ellipse;whiteSpace=wrap;html=1;align=center;" vertex="1" parent="1">
          <mxGeometry x="40" y="280" width="100" height="40" as="geometry" />
        </mxCell>
        <mxCell id="c_MIl92OtCC0vAHZhnYI-23" style="edgeStyle=orthogonalEdgeStyle;rounded=0;orthogonalLoop=1;jettySize=auto;html=1;entryX=0;entryY=0.5;entryDx=0;entryDy=0;endArrow=none;endFill=0;" edge="1" parent="1" source="c_MIl92OtCC0vAHZhnYI-11" target="c_MIl92OtCC0vAHZhnYI-3">
          <mxGeometry relative="1" as="geometry" />
        </mxCell>
        <mxCell id="c_MIl92OtCC0vAHZhnYI-11" value="Password" style="ellipse;whiteSpace=wrap;html=1;align=center;" vertex="1" parent="1">
          <mxGeometry x="40" y="340" width="100" height="40" as="geometry" />
        </mxCell>
        <mxCell id="c_MIl92OtCC0vAHZhnYI-24" style="edgeStyle=orthogonalEdgeStyle;rounded=0;orthogonalLoop=1;jettySize=auto;html=1;entryX=0;entryY=0.5;entryDx=0;entryDy=0;endArrow=none;endFill=0;" edge="1" parent="1" source="c_MIl92OtCC0vAHZhnYI-12" target="c_MIl92OtCC0vAHZhnYI-3">
          <mxGeometry relative="1" as="geometry" />
        </mxCell>
        <mxCell id="c_MIl92OtCC0vAHZhnYI-12" value="ImgUser" style="ellipse;whiteSpace=wrap;html=1;align=center;" vertex="1" parent="1">
          <mxGeometry x="40" y="400" width="100" height="40" as="geometry" />
        </mxCell>
        <mxCell id="c_MIl92OtCC0vAHZhnYI-25" style="edgeStyle=orthogonalEdgeStyle;rounded=0;orthogonalLoop=1;jettySize=auto;html=1;entryX=0;entryY=0.5;entryDx=0;entryDy=0;endArrow=none;endFill=0;" edge="1" parent="1" source="c_MIl92OtCC0vAHZhnYI-14" target="c_MIl92OtCC0vAHZhnYI-3">
          <mxGeometry relative="1" as="geometry" />
        </mxCell>
        <mxCell id="c_MIl92OtCC0vAHZhnYI-14" value="Id_Plantel" style="ellipse;whiteSpace=wrap;html=1;align=center;fontStyle=4;" vertex="1" parent="1">
          <mxGeometry x="40" y="460" width="100" height="40" as="geometry" />
        </mxCell>
        <mxCell id="c_MIl92OtCC0vAHZhnYI-26" style="edgeStyle=orthogonalEdgeStyle;rounded=0;orthogonalLoop=1;jettySize=auto;html=1;exitX=1;exitY=0.5;exitDx=0;exitDy=0;entryX=0;entryY=0.5;entryDx=0;entryDy=0;endArrow=none;endFill=0;" edge="1" parent="1" source="c_MIl92OtCC0vAHZhnYI-15" target="c_MIl92OtCC0vAHZhnYI-3">
          <mxGeometry relative="1" as="geometry" />
        </mxCell>
        <mxCell id="c_MIl92OtCC0vAHZhnYI-15" value="Id_TUsuario" style="ellipse;whiteSpace=wrap;html=1;align=center;fontStyle=4;" vertex="1" parent="1">
          <mxGeometry x="40" y="520" width="100" height="40" as="geometry" />
        </mxCell>
        <mxCell id="c_MIl92OtCC0vAHZhnYI-30" value="" style="edgeStyle=orthogonalEdgeStyle;rounded=0;orthogonalLoop=1;jettySize=auto;html=1;" edge="1" parent="1" source="c_MIl92OtCC0vAHZhnYI-27" target="c_MIl92OtCC0vAHZhnYI-28">
          <mxGeometry relative="1" as="geometry" />
        </mxCell>
        <mxCell id="c_MIl92OtCC0vAHZhnYI-27" value="Tienen" style="shape=rhombus;perimeter=rhombusPerimeter;whiteSpace=wrap;html=1;align=center;" vertex="1" parent="1">
          <mxGeometry x="420" y="200" width="80" height="40" as="geometry" />
        </mxCell>
        <mxCell id="c_MIl92OtCC0vAHZhnYI-28" value="Usuarios" style="rounded=1;arcSize=10;whiteSpace=wrap;html=1;align=center;" vertex="1" parent="1">
          <mxGeometry x="600" y="200" width="100" height="40" as="geometry" />
        </mxCell>
      </root>
    </mxGraphModel>
  </diagram>
</mxfile>
